<mxfile host="app.diagrams.net" modified="2023-01-04T15:13:54.667Z" agent="5.0 (Linux; Android 12; 21051182G) AppleWebKit/537.36 (KHTML, like Gecko) Chrome/108.0.0.0 Safari/537.36" version="20.8.1" etag="qXFCTMhNNPFYl6ks-7Je" type="github">
  <diagram id="ldtcjOp9RZMOsnM4YgLH" name="Page-1">
    <mxGraphModel dx="381" dy="883" grid="1" gridSize="10" guides="1" tooltips="1" connect="1" arrows="1" fold="1" page="0" pageScale="1" pageWidth="827" pageHeight="1169" math="0" shadow="0">
      <root>
        <mxCell id="0" />
        <mxCell id="1" parent="0" />
        <mxCell id="qduU26eSiMNXoxl_xI9t-171" value="" style="rounded=0;whiteSpace=wrap;html=1;fontSize=16;fillColor=none;" vertex="1" parent="1">
          <mxGeometry x="160" y="400" width="190" height="370" as="geometry" />
        </mxCell>
        <mxCell id="qduU26eSiMNXoxl_xI9t-118" value="" style="group" vertex="1" connectable="0" parent="1">
          <mxGeometry x="170" y="410" width="170" height="110" as="geometry" />
        </mxCell>
        <mxCell id="qduU26eSiMNXoxl_xI9t-5" value="" style="ellipse;whiteSpace=wrap;html=1;fontSize=16;fillColor=none;" vertex="1" parent="qduU26eSiMNXoxl_xI9t-118">
          <mxGeometry width="20" height="20" as="geometry" />
        </mxCell>
        <mxCell id="qduU26eSiMNXoxl_xI9t-13" value="" style="ellipse;whiteSpace=wrap;html=1;fontSize=16;fillColor=none;" vertex="1" parent="qduU26eSiMNXoxl_xI9t-118">
          <mxGeometry x="30" width="20" height="20" as="geometry" />
        </mxCell>
        <mxCell id="qduU26eSiMNXoxl_xI9t-15" value="" style="ellipse;whiteSpace=wrap;html=1;fontSize=16;fillColor=none;" vertex="1" parent="qduU26eSiMNXoxl_xI9t-118">
          <mxGeometry x="60" width="20" height="20" as="geometry" />
        </mxCell>
        <mxCell id="qduU26eSiMNXoxl_xI9t-21" value="" style="ellipse;whiteSpace=wrap;html=1;fontSize=16;fillColor=none;" vertex="1" parent="qduU26eSiMNXoxl_xI9t-118">
          <mxGeometry x="90" width="20" height="20" as="geometry" />
        </mxCell>
        <mxCell id="qduU26eSiMNXoxl_xI9t-22" value="" style="ellipse;whiteSpace=wrap;html=1;fontSize=16;fillColor=none;" vertex="1" parent="qduU26eSiMNXoxl_xI9t-118">
          <mxGeometry x="120" width="20" height="20" as="geometry" />
        </mxCell>
        <mxCell id="qduU26eSiMNXoxl_xI9t-23" value="" style="ellipse;whiteSpace=wrap;html=1;fontSize=16;fillColor=none;" vertex="1" parent="qduU26eSiMNXoxl_xI9t-118">
          <mxGeometry x="150" width="20" height="20" as="geometry" />
        </mxCell>
        <mxCell id="qduU26eSiMNXoxl_xI9t-28" value="" style="ellipse;whiteSpace=wrap;html=1;fontSize=16;fillColor=none;" vertex="1" parent="qduU26eSiMNXoxl_xI9t-118">
          <mxGeometry y="30" width="20" height="20" as="geometry" />
        </mxCell>
        <mxCell id="qduU26eSiMNXoxl_xI9t-29" value="" style="ellipse;whiteSpace=wrap;html=1;fontSize=16;fillColor=none;" vertex="1" parent="qduU26eSiMNXoxl_xI9t-118">
          <mxGeometry x="30" y="30" width="20" height="20" as="geometry" />
        </mxCell>
        <mxCell id="qduU26eSiMNXoxl_xI9t-30" value="" style="ellipse;whiteSpace=wrap;html=1;fontSize=16;fillColor=none;direction=west;" vertex="1" parent="qduU26eSiMNXoxl_xI9t-118">
          <mxGeometry x="60" y="30" width="20" height="20" as="geometry" />
        </mxCell>
        <mxCell id="qduU26eSiMNXoxl_xI9t-31" value="" style="ellipse;whiteSpace=wrap;html=1;fontSize=16;fillColor=none;" vertex="1" parent="qduU26eSiMNXoxl_xI9t-118">
          <mxGeometry x="90" y="30" width="20" height="20" as="geometry" />
        </mxCell>
        <mxCell id="qduU26eSiMNXoxl_xI9t-32" value="" style="ellipse;whiteSpace=wrap;html=1;fontSize=16;fillColor=none;" vertex="1" parent="qduU26eSiMNXoxl_xI9t-118">
          <mxGeometry x="120" y="30" width="20" height="20" as="geometry" />
        </mxCell>
        <mxCell id="qduU26eSiMNXoxl_xI9t-37" value="" style="ellipse;whiteSpace=wrap;html=1;fontSize=16;fillColor=none;" vertex="1" parent="qduU26eSiMNXoxl_xI9t-118">
          <mxGeometry x="150" y="30" width="20" height="20" as="geometry" />
        </mxCell>
        <mxCell id="qduU26eSiMNXoxl_xI9t-51" value="" style="ellipse;whiteSpace=wrap;html=1;fontSize=16;fillColor=none;" vertex="1" parent="qduU26eSiMNXoxl_xI9t-118">
          <mxGeometry y="60" width="20" height="20" as="geometry" />
        </mxCell>
        <mxCell id="qduU26eSiMNXoxl_xI9t-52" value="" style="ellipse;whiteSpace=wrap;html=1;fontSize=16;fillColor=none;" vertex="1" parent="qduU26eSiMNXoxl_xI9t-118">
          <mxGeometry x="30" y="60" width="20" height="20" as="geometry" />
        </mxCell>
        <mxCell id="qduU26eSiMNXoxl_xI9t-53" value="" style="ellipse;whiteSpace=wrap;html=1;fontSize=16;fillColor=none;" vertex="1" parent="qduU26eSiMNXoxl_xI9t-118">
          <mxGeometry x="60" y="60" width="20" height="20" as="geometry" />
        </mxCell>
        <mxCell id="qduU26eSiMNXoxl_xI9t-54" value="" style="ellipse;whiteSpace=wrap;html=1;fontSize=16;fillColor=none;" vertex="1" parent="qduU26eSiMNXoxl_xI9t-118">
          <mxGeometry x="90" y="60" width="20" height="20" as="geometry" />
        </mxCell>
        <mxCell id="qduU26eSiMNXoxl_xI9t-55" value="" style="ellipse;whiteSpace=wrap;html=1;fontSize=16;fillColor=none;" vertex="1" parent="qduU26eSiMNXoxl_xI9t-118">
          <mxGeometry x="120" y="60" width="20" height="20" as="geometry" />
        </mxCell>
        <mxCell id="qduU26eSiMNXoxl_xI9t-56" value="" style="ellipse;whiteSpace=wrap;html=1;fontSize=16;fillColor=none;" vertex="1" parent="qduU26eSiMNXoxl_xI9t-118">
          <mxGeometry x="150" y="60" width="20" height="20" as="geometry" />
        </mxCell>
        <mxCell id="qduU26eSiMNXoxl_xI9t-57" value="" style="ellipse;whiteSpace=wrap;html=1;fontSize=16;fillColor=none;" vertex="1" parent="qduU26eSiMNXoxl_xI9t-118">
          <mxGeometry y="90" width="20" height="20" as="geometry" />
        </mxCell>
        <mxCell id="qduU26eSiMNXoxl_xI9t-58" value="" style="ellipse;whiteSpace=wrap;html=1;fontSize=16;fillColor=none;" vertex="1" parent="qduU26eSiMNXoxl_xI9t-118">
          <mxGeometry x="30" y="90" width="20" height="20" as="geometry" />
        </mxCell>
        <mxCell id="qduU26eSiMNXoxl_xI9t-59" value="" style="ellipse;whiteSpace=wrap;html=1;fontSize=16;fillColor=none;direction=west;" vertex="1" parent="qduU26eSiMNXoxl_xI9t-118">
          <mxGeometry x="60" y="90" width="20" height="20" as="geometry" />
        </mxCell>
        <mxCell id="qduU26eSiMNXoxl_xI9t-60" value="" style="ellipse;whiteSpace=wrap;html=1;fontSize=16;fillColor=none;" vertex="1" parent="qduU26eSiMNXoxl_xI9t-118">
          <mxGeometry x="90" y="90" width="20" height="20" as="geometry" />
        </mxCell>
        <mxCell id="qduU26eSiMNXoxl_xI9t-61" value="" style="ellipse;whiteSpace=wrap;html=1;fontSize=16;fillColor=none;" vertex="1" parent="qduU26eSiMNXoxl_xI9t-118">
          <mxGeometry x="120" y="90" width="20" height="20" as="geometry" />
        </mxCell>
        <mxCell id="qduU26eSiMNXoxl_xI9t-62" value="" style="ellipse;whiteSpace=wrap;html=1;fontSize=16;fillColor=none;" vertex="1" parent="qduU26eSiMNXoxl_xI9t-118">
          <mxGeometry x="150" y="90" width="20" height="20" as="geometry" />
        </mxCell>
        <mxCell id="qduU26eSiMNXoxl_xI9t-119" value="" style="group" vertex="1" connectable="0" parent="1">
          <mxGeometry x="170" y="530" width="170" height="110" as="geometry" />
        </mxCell>
        <mxCell id="qduU26eSiMNXoxl_xI9t-120" value="" style="ellipse;whiteSpace=wrap;html=1;fontSize=16;fillColor=none;" vertex="1" parent="qduU26eSiMNXoxl_xI9t-119">
          <mxGeometry width="20" height="20" as="geometry" />
        </mxCell>
        <mxCell id="qduU26eSiMNXoxl_xI9t-121" value="" style="ellipse;whiteSpace=wrap;html=1;fontSize=16;fillColor=none;" vertex="1" parent="qduU26eSiMNXoxl_xI9t-119">
          <mxGeometry x="30" width="20" height="20" as="geometry" />
        </mxCell>
        <mxCell id="qduU26eSiMNXoxl_xI9t-122" value="" style="ellipse;whiteSpace=wrap;html=1;fontSize=16;fillColor=none;" vertex="1" parent="qduU26eSiMNXoxl_xI9t-119">
          <mxGeometry x="60" width="20" height="20" as="geometry" />
        </mxCell>
        <mxCell id="qduU26eSiMNXoxl_xI9t-123" value="" style="ellipse;whiteSpace=wrap;html=1;fontSize=16;fillColor=none;" vertex="1" parent="qduU26eSiMNXoxl_xI9t-119">
          <mxGeometry x="90" width="20" height="20" as="geometry" />
        </mxCell>
        <mxCell id="qduU26eSiMNXoxl_xI9t-124" value="" style="ellipse;whiteSpace=wrap;html=1;fontSize=16;fillColor=none;" vertex="1" parent="qduU26eSiMNXoxl_xI9t-119">
          <mxGeometry x="120" width="20" height="20" as="geometry" />
        </mxCell>
        <mxCell id="qduU26eSiMNXoxl_xI9t-125" value="" style="ellipse;whiteSpace=wrap;html=1;fontSize=16;fillColor=none;" vertex="1" parent="qduU26eSiMNXoxl_xI9t-119">
          <mxGeometry x="150" width="20" height="20" as="geometry" />
        </mxCell>
        <mxCell id="qduU26eSiMNXoxl_xI9t-126" value="" style="ellipse;whiteSpace=wrap;html=1;fontSize=16;fillColor=none;" vertex="1" parent="qduU26eSiMNXoxl_xI9t-119">
          <mxGeometry y="30.000000000000004" width="20" height="20" as="geometry" />
        </mxCell>
        <mxCell id="qduU26eSiMNXoxl_xI9t-231" style="edgeStyle=none;curved=1;rounded=0;orthogonalLoop=1;jettySize=auto;html=1;exitX=0;exitY=0.5;exitDx=0;exitDy=0;strokeWidth=3;fontSize=12;endArrow=none;endFill=0;startSize=8;endSize=8;" edge="1" parent="qduU26eSiMNXoxl_xI9t-119" source="qduU26eSiMNXoxl_xI9t-127">
          <mxGeometry relative="1" as="geometry">
            <mxPoint x="20" y="40" as="targetPoint" />
          </mxGeometry>
        </mxCell>
        <mxCell id="qduU26eSiMNXoxl_xI9t-127" value="" style="ellipse;whiteSpace=wrap;html=1;fontSize=16;fillColor=none;" vertex="1" parent="qduU26eSiMNXoxl_xI9t-119">
          <mxGeometry x="30" y="30.000000000000004" width="20" height="20" as="geometry" />
        </mxCell>
        <mxCell id="qduU26eSiMNXoxl_xI9t-128" value="" style="ellipse;whiteSpace=wrap;html=1;fontSize=16;fillColor=none;direction=west;" vertex="1" parent="qduU26eSiMNXoxl_xI9t-119">
          <mxGeometry x="60" y="30.000000000000004" width="20" height="20" as="geometry" />
        </mxCell>
        <mxCell id="qduU26eSiMNXoxl_xI9t-129" value="" style="ellipse;whiteSpace=wrap;html=1;fontSize=16;fillColor=none;" vertex="1" parent="qduU26eSiMNXoxl_xI9t-119">
          <mxGeometry x="90" y="30.000000000000004" width="20" height="20" as="geometry" />
        </mxCell>
        <mxCell id="qduU26eSiMNXoxl_xI9t-130" value="" style="ellipse;whiteSpace=wrap;html=1;fontSize=16;fillColor=none;" vertex="1" parent="qduU26eSiMNXoxl_xI9t-119">
          <mxGeometry x="120" y="30.000000000000004" width="20" height="20" as="geometry" />
        </mxCell>
        <mxCell id="qduU26eSiMNXoxl_xI9t-131" value="" style="ellipse;whiteSpace=wrap;html=1;fontSize=16;fillColor=none;" vertex="1" parent="qduU26eSiMNXoxl_xI9t-119">
          <mxGeometry x="150" y="30.000000000000004" width="20" height="20" as="geometry" />
        </mxCell>
        <mxCell id="qduU26eSiMNXoxl_xI9t-132" value="" style="ellipse;whiteSpace=wrap;html=1;fontSize=16;fillColor=none;" vertex="1" parent="qduU26eSiMNXoxl_xI9t-119">
          <mxGeometry y="60.00000000000001" width="20" height="20" as="geometry" />
        </mxCell>
        <mxCell id="qduU26eSiMNXoxl_xI9t-230" style="edgeStyle=none;curved=1;rounded=0;orthogonalLoop=1;jettySize=auto;html=1;exitX=0;exitY=0.5;exitDx=0;exitDy=0;entryX=1;entryY=0.5;entryDx=0;entryDy=0;strokeWidth=3;fontSize=12;endArrow=none;endFill=0;startSize=8;endSize=8;fillColor=#f8cecc;strokeColor=#b85450;" edge="1" parent="qduU26eSiMNXoxl_xI9t-119" source="qduU26eSiMNXoxl_xI9t-133" target="qduU26eSiMNXoxl_xI9t-132">
          <mxGeometry relative="1" as="geometry" />
        </mxCell>
        <mxCell id="qduU26eSiMNXoxl_xI9t-133" value="" style="ellipse;whiteSpace=wrap;html=1;fontSize=16;fillColor=none;" vertex="1" parent="qduU26eSiMNXoxl_xI9t-119">
          <mxGeometry x="30" y="60.00000000000001" width="20" height="20" as="geometry" />
        </mxCell>
        <mxCell id="qduU26eSiMNXoxl_xI9t-134" value="" style="ellipse;whiteSpace=wrap;html=1;fontSize=16;fillColor=none;" vertex="1" parent="qduU26eSiMNXoxl_xI9t-119">
          <mxGeometry x="60" y="60.00000000000001" width="20" height="20" as="geometry" />
        </mxCell>
        <mxCell id="qduU26eSiMNXoxl_xI9t-135" value="" style="ellipse;whiteSpace=wrap;html=1;fontSize=16;fillColor=none;" vertex="1" parent="qduU26eSiMNXoxl_xI9t-119">
          <mxGeometry x="90" y="60.00000000000001" width="20" height="20" as="geometry" />
        </mxCell>
        <mxCell id="qduU26eSiMNXoxl_xI9t-224" style="edgeStyle=none;curved=1;rounded=0;orthogonalLoop=1;jettySize=auto;html=1;exitX=1;exitY=0.5;exitDx=0;exitDy=0;entryX=0;entryY=0.5;entryDx=0;entryDy=0;strokeWidth=3;fontSize=12;endArrow=none;endFill=0;startSize=8;endSize=8;fillColor=#fff2cc;strokeColor=#d6b656;" edge="1" parent="qduU26eSiMNXoxl_xI9t-119" source="qduU26eSiMNXoxl_xI9t-136" target="qduU26eSiMNXoxl_xI9t-137">
          <mxGeometry relative="1" as="geometry" />
        </mxCell>
        <mxCell id="qduU26eSiMNXoxl_xI9t-136" value="" style="ellipse;whiteSpace=wrap;html=1;fontSize=16;fillColor=none;" vertex="1" parent="qduU26eSiMNXoxl_xI9t-119">
          <mxGeometry x="120" y="60.00000000000001" width="20" height="20" as="geometry" />
        </mxCell>
        <mxCell id="qduU26eSiMNXoxl_xI9t-137" value="" style="ellipse;whiteSpace=wrap;html=1;fontSize=16;fillColor=none;" vertex="1" parent="qduU26eSiMNXoxl_xI9t-119">
          <mxGeometry x="150" y="60.00000000000001" width="20" height="20" as="geometry" />
        </mxCell>
        <mxCell id="qduU26eSiMNXoxl_xI9t-138" value="" style="ellipse;whiteSpace=wrap;html=1;fontSize=16;fillColor=none;" vertex="1" parent="qduU26eSiMNXoxl_xI9t-119">
          <mxGeometry y="90" width="20" height="20" as="geometry" />
        </mxCell>
        <mxCell id="qduU26eSiMNXoxl_xI9t-139" value="" style="ellipse;whiteSpace=wrap;html=1;fontSize=16;fillColor=none;" vertex="1" parent="qduU26eSiMNXoxl_xI9t-119">
          <mxGeometry x="30" y="90" width="20" height="20" as="geometry" />
        </mxCell>
        <mxCell id="qduU26eSiMNXoxl_xI9t-140" value="" style="ellipse;whiteSpace=wrap;html=1;fontSize=16;fillColor=none;direction=west;" vertex="1" parent="qduU26eSiMNXoxl_xI9t-119">
          <mxGeometry x="60" y="90" width="20" height="20" as="geometry" />
        </mxCell>
        <mxCell id="qduU26eSiMNXoxl_xI9t-141" value="" style="ellipse;whiteSpace=wrap;html=1;fontSize=16;fillColor=none;" vertex="1" parent="qduU26eSiMNXoxl_xI9t-119">
          <mxGeometry x="90" y="90" width="20" height="20" as="geometry" />
        </mxCell>
        <mxCell id="qduU26eSiMNXoxl_xI9t-225" style="edgeStyle=none;curved=1;rounded=0;orthogonalLoop=1;jettySize=auto;html=1;exitX=1;exitY=0.5;exitDx=0;exitDy=0;entryX=0;entryY=0.5;entryDx=0;entryDy=0;strokeWidth=3;fontSize=12;endArrow=none;endFill=0;startSize=8;endSize=8;fillColor=#dae8fc;strokeColor=#6c8ebf;" edge="1" parent="qduU26eSiMNXoxl_xI9t-119" source="qduU26eSiMNXoxl_xI9t-142" target="qduU26eSiMNXoxl_xI9t-143">
          <mxGeometry relative="1" as="geometry" />
        </mxCell>
        <mxCell id="qduU26eSiMNXoxl_xI9t-142" value="" style="ellipse;whiteSpace=wrap;html=1;fontSize=16;fillColor=none;" vertex="1" parent="qduU26eSiMNXoxl_xI9t-119">
          <mxGeometry x="120" y="90" width="20" height="20" as="geometry" />
        </mxCell>
        <mxCell id="qduU26eSiMNXoxl_xI9t-143" value="" style="ellipse;whiteSpace=wrap;html=1;fontSize=16;fillColor=none;" vertex="1" parent="qduU26eSiMNXoxl_xI9t-119">
          <mxGeometry x="150" y="90" width="20" height="20" as="geometry" />
        </mxCell>
        <mxCell id="qduU26eSiMNXoxl_xI9t-145" value="" style="group" vertex="1" connectable="0" parent="1">
          <mxGeometry x="170" y="650" width="170" height="110" as="geometry" />
        </mxCell>
        <mxCell id="qduU26eSiMNXoxl_xI9t-146" value="" style="ellipse;whiteSpace=wrap;html=1;fontSize=16;fillColor=none;" vertex="1" parent="qduU26eSiMNXoxl_xI9t-145">
          <mxGeometry width="20" height="20.000000000000007" as="geometry" />
        </mxCell>
        <mxCell id="qduU26eSiMNXoxl_xI9t-147" value="" style="ellipse;whiteSpace=wrap;html=1;fontSize=16;fillColor=none;" vertex="1" parent="qduU26eSiMNXoxl_xI9t-145">
          <mxGeometry x="30" width="20" height="20.000000000000007" as="geometry" />
        </mxCell>
        <mxCell id="qduU26eSiMNXoxl_xI9t-148" value="" style="ellipse;whiteSpace=wrap;html=1;fontSize=16;fillColor=none;" vertex="1" parent="qduU26eSiMNXoxl_xI9t-145">
          <mxGeometry x="60" width="20" height="20.000000000000007" as="geometry" />
        </mxCell>
        <mxCell id="qduU26eSiMNXoxl_xI9t-149" value="" style="ellipse;whiteSpace=wrap;html=1;fontSize=16;fillColor=none;" vertex="1" parent="qduU26eSiMNXoxl_xI9t-145">
          <mxGeometry x="90" width="20" height="20.000000000000007" as="geometry" />
        </mxCell>
        <mxCell id="qduU26eSiMNXoxl_xI9t-226" style="edgeStyle=none;curved=1;rounded=0;orthogonalLoop=1;jettySize=auto;html=1;exitX=1;exitY=0.5;exitDx=0;exitDy=0;entryX=0;entryY=0.5;entryDx=0;entryDy=0;strokeWidth=3;fontSize=12;endArrow=none;endFill=0;startSize=8;endSize=8;" edge="1" parent="qduU26eSiMNXoxl_xI9t-145" source="qduU26eSiMNXoxl_xI9t-150" target="qduU26eSiMNXoxl_xI9t-151">
          <mxGeometry relative="1" as="geometry" />
        </mxCell>
        <mxCell id="qduU26eSiMNXoxl_xI9t-150" value="" style="ellipse;whiteSpace=wrap;html=1;fontSize=16;fillColor=none;" vertex="1" parent="qduU26eSiMNXoxl_xI9t-145">
          <mxGeometry x="120" width="20" height="20.000000000000007" as="geometry" />
        </mxCell>
        <mxCell id="qduU26eSiMNXoxl_xI9t-151" value="" style="ellipse;whiteSpace=wrap;html=1;fontSize=16;fillColor=none;" vertex="1" parent="qduU26eSiMNXoxl_xI9t-145">
          <mxGeometry x="150" width="20" height="20.000000000000007" as="geometry" />
        </mxCell>
        <mxCell id="qduU26eSiMNXoxl_xI9t-152" value="" style="ellipse;whiteSpace=wrap;html=1;fontSize=16;fillColor=none;" vertex="1" parent="qduU26eSiMNXoxl_xI9t-145">
          <mxGeometry y="30.000000000000007" width="20" height="20.000000000000007" as="geometry" />
        </mxCell>
        <mxCell id="qduU26eSiMNXoxl_xI9t-153" value="" style="ellipse;whiteSpace=wrap;html=1;fontSize=16;fillColor=none;" vertex="1" parent="qduU26eSiMNXoxl_xI9t-145">
          <mxGeometry x="30" y="30.000000000000007" width="20" height="20.000000000000007" as="geometry" />
        </mxCell>
        <mxCell id="qduU26eSiMNXoxl_xI9t-154" value="" style="ellipse;whiteSpace=wrap;html=1;fontSize=16;fillColor=none;direction=west;" vertex="1" parent="qduU26eSiMNXoxl_xI9t-145">
          <mxGeometry x="60" y="30.000000000000007" width="20" height="20.000000000000007" as="geometry" />
        </mxCell>
        <mxCell id="qduU26eSiMNXoxl_xI9t-155" value="" style="ellipse;whiteSpace=wrap;html=1;fontSize=16;fillColor=none;" vertex="1" parent="qduU26eSiMNXoxl_xI9t-145">
          <mxGeometry x="90" y="30.000000000000007" width="20" height="20.000000000000007" as="geometry" />
        </mxCell>
        <mxCell id="qduU26eSiMNXoxl_xI9t-156" value="" style="ellipse;whiteSpace=wrap;html=1;fontSize=16;fillColor=none;" vertex="1" parent="qduU26eSiMNXoxl_xI9t-145">
          <mxGeometry x="120" y="30.000000000000007" width="20" height="20.000000000000007" as="geometry" />
        </mxCell>
        <mxCell id="qduU26eSiMNXoxl_xI9t-157" value="" style="ellipse;whiteSpace=wrap;html=1;fontSize=16;fillColor=none;" vertex="1" parent="qduU26eSiMNXoxl_xI9t-145">
          <mxGeometry x="150" y="30.000000000000007" width="20" height="20.000000000000007" as="geometry" />
        </mxCell>
        <mxCell id="qduU26eSiMNXoxl_xI9t-222" style="edgeStyle=none;curved=1;rounded=0;orthogonalLoop=1;jettySize=auto;html=1;exitX=0.5;exitY=1;exitDx=0;exitDy=0;entryX=0.5;entryY=0;entryDx=0;entryDy=0;strokeWidth=3;fontSize=12;endArrow=none;endFill=0;startSize=8;endSize=8;" edge="1" parent="qduU26eSiMNXoxl_xI9t-145" source="qduU26eSiMNXoxl_xI9t-158" target="qduU26eSiMNXoxl_xI9t-164">
          <mxGeometry relative="1" as="geometry" />
        </mxCell>
        <mxCell id="qduU26eSiMNXoxl_xI9t-158" value="" style="ellipse;whiteSpace=wrap;html=1;fontSize=16;fillColor=none;" vertex="1" parent="qduU26eSiMNXoxl_xI9t-145">
          <mxGeometry y="60.000000000000014" width="20" height="20.000000000000007" as="geometry" />
        </mxCell>
        <mxCell id="qduU26eSiMNXoxl_xI9t-221" style="edgeStyle=none;curved=1;rounded=0;orthogonalLoop=1;jettySize=auto;html=1;exitX=0.5;exitY=1;exitDx=0;exitDy=0;entryX=0.5;entryY=0;entryDx=0;entryDy=0;strokeWidth=3;fontSize=12;endArrow=none;endFill=0;startSize=8;endSize=8;fillColor=#f8cecc;strokeColor=#b85450;" edge="1" parent="qduU26eSiMNXoxl_xI9t-145" source="qduU26eSiMNXoxl_xI9t-159" target="qduU26eSiMNXoxl_xI9t-165">
          <mxGeometry relative="1" as="geometry" />
        </mxCell>
        <mxCell id="qduU26eSiMNXoxl_xI9t-159" value="" style="ellipse;whiteSpace=wrap;html=1;fontSize=16;fillColor=none;" vertex="1" parent="qduU26eSiMNXoxl_xI9t-145">
          <mxGeometry x="30" y="60.000000000000014" width="20" height="20.000000000000007" as="geometry" />
        </mxCell>
        <mxCell id="qduU26eSiMNXoxl_xI9t-220" style="edgeStyle=none;curved=1;rounded=0;orthogonalLoop=1;jettySize=auto;html=1;exitX=0.5;exitY=1;exitDx=0;exitDy=0;entryX=0.5;entryY=1;entryDx=0;entryDy=0;strokeWidth=3;fontSize=12;endArrow=none;endFill=0;startSize=8;endSize=8;fillColor=#ffe6cc;strokeColor=#d79b00;" edge="1" parent="qduU26eSiMNXoxl_xI9t-145" source="qduU26eSiMNXoxl_xI9t-160" target="qduU26eSiMNXoxl_xI9t-166">
          <mxGeometry relative="1" as="geometry" />
        </mxCell>
        <mxCell id="qduU26eSiMNXoxl_xI9t-160" value="" style="ellipse;whiteSpace=wrap;html=1;fontSize=16;fillColor=none;" vertex="1" parent="qduU26eSiMNXoxl_xI9t-145">
          <mxGeometry x="60" y="60.000000000000014" width="20" height="20.000000000000007" as="geometry" />
        </mxCell>
        <mxCell id="qduU26eSiMNXoxl_xI9t-218" style="edgeStyle=none;curved=1;rounded=0;orthogonalLoop=1;jettySize=auto;html=1;exitX=0.5;exitY=1;exitDx=0;exitDy=0;entryX=0.5;entryY=0;entryDx=0;entryDy=0;strokeWidth=3;fontSize=12;endArrow=none;endFill=0;startSize=8;endSize=8;fillColor=#dae8fc;strokeColor=#6c8ebf;" edge="1" parent="qduU26eSiMNXoxl_xI9t-145" source="qduU26eSiMNXoxl_xI9t-161" target="qduU26eSiMNXoxl_xI9t-167">
          <mxGeometry relative="1" as="geometry" />
        </mxCell>
        <mxCell id="qduU26eSiMNXoxl_xI9t-161" value="" style="ellipse;whiteSpace=wrap;html=1;fontSize=16;fillColor=none;" vertex="1" parent="qduU26eSiMNXoxl_xI9t-145">
          <mxGeometry x="90" y="60.000000000000014" width="20" height="20.000000000000007" as="geometry" />
        </mxCell>
        <mxCell id="qduU26eSiMNXoxl_xI9t-216" style="edgeStyle=none;curved=1;rounded=0;orthogonalLoop=1;jettySize=auto;html=1;exitX=0.5;exitY=1;exitDx=0;exitDy=0;entryX=0.5;entryY=0;entryDx=0;entryDy=0;strokeWidth=3;fontSize=12;endArrow=none;endFill=0;startSize=8;endSize=8;fillColor=#d5e8d4;strokeColor=#82b366;" edge="1" parent="qduU26eSiMNXoxl_xI9t-145" source="qduU26eSiMNXoxl_xI9t-162" target="qduU26eSiMNXoxl_xI9t-168">
          <mxGeometry relative="1" as="geometry" />
        </mxCell>
        <mxCell id="qduU26eSiMNXoxl_xI9t-162" value="" style="ellipse;whiteSpace=wrap;html=1;fontSize=16;fillColor=none;" vertex="1" parent="qduU26eSiMNXoxl_xI9t-145">
          <mxGeometry x="120" y="60" width="20" height="20" as="geometry" />
        </mxCell>
        <mxCell id="qduU26eSiMNXoxl_xI9t-163" value="" style="ellipse;whiteSpace=wrap;html=1;fontSize=16;fillColor=none;" vertex="1" parent="qduU26eSiMNXoxl_xI9t-145">
          <mxGeometry x="150" y="60.000000000000014" width="20" height="20.000000000000007" as="geometry" />
        </mxCell>
        <mxCell id="qduU26eSiMNXoxl_xI9t-164" value="" style="ellipse;whiteSpace=wrap;html=1;fontSize=16;fillColor=none;" vertex="1" parent="qduU26eSiMNXoxl_xI9t-145">
          <mxGeometry y="90.00000000000001" width="20" height="20.000000000000007" as="geometry" />
        </mxCell>
        <mxCell id="qduU26eSiMNXoxl_xI9t-165" value="" style="ellipse;whiteSpace=wrap;html=1;fontSize=16;fillColor=none;" vertex="1" parent="qduU26eSiMNXoxl_xI9t-145">
          <mxGeometry x="30" y="90.00000000000001" width="20" height="20.000000000000007" as="geometry" />
        </mxCell>
        <mxCell id="qduU26eSiMNXoxl_xI9t-166" value="" style="ellipse;whiteSpace=wrap;html=1;fontSize=16;fillColor=none;direction=west;" vertex="1" parent="qduU26eSiMNXoxl_xI9t-145">
          <mxGeometry x="60" y="90.00000000000001" width="20" height="20.000000000000007" as="geometry" />
        </mxCell>
        <mxCell id="qduU26eSiMNXoxl_xI9t-167" value="" style="ellipse;whiteSpace=wrap;html=1;fontSize=16;fillColor=none;" vertex="1" parent="qduU26eSiMNXoxl_xI9t-145">
          <mxGeometry x="90" y="90.00000000000001" width="20" height="20.000000000000007" as="geometry" />
        </mxCell>
        <mxCell id="qduU26eSiMNXoxl_xI9t-168" value="" style="ellipse;whiteSpace=wrap;html=1;fontSize=16;fillColor=none;" vertex="1" parent="qduU26eSiMNXoxl_xI9t-145">
          <mxGeometry x="120" y="90.00000000000001" width="20" height="20.000000000000007" as="geometry" />
        </mxCell>
        <mxCell id="qduU26eSiMNXoxl_xI9t-169" value="" style="ellipse;whiteSpace=wrap;html=1;fontSize=16;fillColor=none;" vertex="1" parent="qduU26eSiMNXoxl_xI9t-145">
          <mxGeometry x="150" y="90.00000000000001" width="20" height="20.000000000000007" as="geometry" />
        </mxCell>
        <mxCell id="qduU26eSiMNXoxl_xI9t-172" value="A" style="text;strokeColor=none;fillColor=none;html=1;align=center;verticalAlign=middle;whiteSpace=wrap;rounded=0;fontSize=16;" vertex="1" parent="1">
          <mxGeometry x="120" y="410" width="40" height="20" as="geometry" />
        </mxCell>
        <mxCell id="qduU26eSiMNXoxl_xI9t-175" value="B" style="text;strokeColor=none;fillColor=none;html=1;align=center;verticalAlign=middle;whiteSpace=wrap;rounded=0;fontSize=16;" vertex="1" parent="1">
          <mxGeometry x="120" y="440" width="40" height="20" as="geometry" />
        </mxCell>
        <mxCell id="qduU26eSiMNXoxl_xI9t-176" value="C" style="text;strokeColor=none;fillColor=none;html=1;align=center;verticalAlign=middle;whiteSpace=wrap;rounded=0;fontSize=16;" vertex="1" parent="1">
          <mxGeometry x="120" y="470" width="40" height="20" as="geometry" />
        </mxCell>
        <mxCell id="qduU26eSiMNXoxl_xI9t-177" value="D" style="text;strokeColor=none;fillColor=none;html=1;align=center;verticalAlign=middle;whiteSpace=wrap;rounded=0;fontSize=16;" vertex="1" parent="1">
          <mxGeometry x="120" y="500" width="40" height="20" as="geometry" />
        </mxCell>
        <mxCell id="qduU26eSiMNXoxl_xI9t-178" value="E" style="text;strokeColor=none;fillColor=none;html=1;align=center;verticalAlign=middle;whiteSpace=wrap;rounded=0;fontSize=16;" vertex="1" parent="1">
          <mxGeometry x="120" y="530" width="40" height="20" as="geometry" />
        </mxCell>
        <mxCell id="qduU26eSiMNXoxl_xI9t-179" value="F" style="text;strokeColor=none;fillColor=none;html=1;align=center;verticalAlign=middle;whiteSpace=wrap;rounded=0;fontSize=16;" vertex="1" parent="1">
          <mxGeometry x="120" y="560" width="40" height="20" as="geometry" />
        </mxCell>
        <mxCell id="qduU26eSiMNXoxl_xI9t-180" value="F" style="text;strokeColor=none;fillColor=none;html=1;align=center;verticalAlign=middle;whiteSpace=wrap;rounded=0;fontSize=16;" vertex="1" parent="1">
          <mxGeometry x="120" y="590" width="40" height="20" as="geometry" />
        </mxCell>
        <mxCell id="qduU26eSiMNXoxl_xI9t-181" value="G" style="text;strokeColor=none;fillColor=none;html=1;align=center;verticalAlign=middle;whiteSpace=wrap;rounded=0;fontSize=16;" vertex="1" parent="1">
          <mxGeometry x="120" y="620" width="40" height="20" as="geometry" />
        </mxCell>
        <mxCell id="qduU26eSiMNXoxl_xI9t-183" value="H" style="text;strokeColor=none;fillColor=none;html=1;align=center;verticalAlign=middle;whiteSpace=wrap;rounded=0;fontSize=16;" vertex="1" parent="1">
          <mxGeometry x="120" y="650" width="40" height="20" as="geometry" />
        </mxCell>
        <mxCell id="qduU26eSiMNXoxl_xI9t-184" value="I" style="text;strokeColor=none;fillColor=none;html=1;align=center;verticalAlign=middle;whiteSpace=wrap;rounded=0;fontSize=16;" vertex="1" parent="1">
          <mxGeometry x="120" y="680" width="40" height="20" as="geometry" />
        </mxCell>
        <mxCell id="qduU26eSiMNXoxl_xI9t-185" value="J" style="text;strokeColor=none;fillColor=none;html=1;align=center;verticalAlign=middle;whiteSpace=wrap;rounded=0;fontSize=16;" vertex="1" parent="1">
          <mxGeometry x="120" y="710" width="40" height="20" as="geometry" />
        </mxCell>
        <mxCell id="qduU26eSiMNXoxl_xI9t-186" value="K" style="text;strokeColor=none;fillColor=none;html=1;align=center;verticalAlign=middle;whiteSpace=wrap;rounded=0;fontSize=16;" vertex="1" parent="1">
          <mxGeometry x="120" y="740" width="40" height="20" as="geometry" />
        </mxCell>
        <mxCell id="qduU26eSiMNXoxl_xI9t-187" value="1" style="text;strokeColor=none;fillColor=none;html=1;align=center;verticalAlign=middle;whiteSpace=wrap;rounded=0;fontSize=16;" vertex="1" parent="1">
          <mxGeometry x="170" y="370" width="20" height="20" as="geometry" />
        </mxCell>
        <mxCell id="qduU26eSiMNXoxl_xI9t-191" value="2" style="text;strokeColor=none;fillColor=none;html=1;align=center;verticalAlign=middle;whiteSpace=wrap;rounded=0;fontSize=16;" vertex="1" parent="1">
          <mxGeometry x="200" y="370" width="20" height="20" as="geometry" />
        </mxCell>
        <mxCell id="qduU26eSiMNXoxl_xI9t-194" value="3" style="text;strokeColor=none;fillColor=none;html=1;align=center;verticalAlign=middle;whiteSpace=wrap;rounded=0;fontSize=16;" vertex="1" parent="1">
          <mxGeometry x="230" y="370" width="20" height="20" as="geometry" />
        </mxCell>
        <mxCell id="qduU26eSiMNXoxl_xI9t-196" value="4" style="text;strokeColor=none;fillColor=none;html=1;align=center;verticalAlign=middle;whiteSpace=wrap;rounded=0;fontSize=16;" vertex="1" parent="1">
          <mxGeometry x="260" y="370" width="20" height="20" as="geometry" />
        </mxCell>
        <mxCell id="qduU26eSiMNXoxl_xI9t-197" value="5" style="text;strokeColor=none;fillColor=none;html=1;align=center;verticalAlign=middle;whiteSpace=wrap;rounded=0;fontSize=16;" vertex="1" parent="1">
          <mxGeometry x="290" y="370" width="20" height="20" as="geometry" />
        </mxCell>
        <mxCell id="qduU26eSiMNXoxl_xI9t-198" value="6" style="text;strokeColor=none;fillColor=none;html=1;align=center;verticalAlign=middle;whiteSpace=wrap;rounded=0;fontSize=16;" vertex="1" parent="1">
          <mxGeometry x="320" y="370" width="20" height="20" as="geometry" />
        </mxCell>
        <mxCell id="qduU26eSiMNXoxl_xI9t-200" style="edgeStyle=none;curved=1;rounded=0;orthogonalLoop=1;jettySize=auto;html=1;fontSize=12;startSize=8;endSize=8;exitX=1;exitY=0;exitDx=0;exitDy=0;strokeWidth=3;endArrow=none;endFill=0;fillColor=#f8cecc;strokeColor=#b85450;entryX=0;entryY=1;entryDx=0;entryDy=0;" edge="1" parent="1" source="qduU26eSiMNXoxl_xI9t-133" target="qduU26eSiMNXoxl_xI9t-37">
          <mxGeometry relative="1" as="geometry">
            <mxPoint x="220" y="590" as="sourcePoint" />
            <mxPoint x="330" y="460" as="targetPoint" />
          </mxGeometry>
        </mxCell>
        <mxCell id="qduU26eSiMNXoxl_xI9t-201" style="edgeStyle=none;curved=1;rounded=0;orthogonalLoop=1;jettySize=auto;html=1;exitX=0.5;exitY=1;exitDx=0;exitDy=0;strokeWidth=3;fontSize=12;endArrow=none;endFill=0;startSize=8;endSize=8;" edge="1" parent="1" source="qduU26eSiMNXoxl_xI9t-29">
          <mxGeometry relative="1" as="geometry">
            <mxPoint x="210" y="560" as="targetPoint" />
          </mxGeometry>
        </mxCell>
        <mxCell id="qduU26eSiMNXoxl_xI9t-203" style="edgeStyle=none;curved=1;rounded=0;orthogonalLoop=1;jettySize=auto;html=1;exitX=1;exitY=0;exitDx=0;exitDy=0;entryX=0.5;entryY=1;entryDx=0;entryDy=0;strokeWidth=3;fontSize=12;endArrow=none;endFill=0;startSize=8;endSize=8;fillColor=#dae8fc;strokeColor=#6c8ebf;" edge="1" parent="1" source="qduU26eSiMNXoxl_xI9t-139" target="qduU26eSiMNXoxl_xI9t-31">
          <mxGeometry relative="1" as="geometry" />
        </mxCell>
        <mxCell id="qduU26eSiMNXoxl_xI9t-205" style="edgeStyle=none;curved=1;rounded=0;orthogonalLoop=1;jettySize=auto;html=1;exitX=1;exitY=0;exitDx=0;exitDy=0;entryX=0;entryY=1;entryDx=0;entryDy=0;strokeWidth=3;fontSize=12;endArrow=none;endFill=0;startSize=8;endSize=8;fillColor=#d5e8d4;strokeColor=#82b366;" edge="1" parent="1" source="qduU26eSiMNXoxl_xI9t-147" target="qduU26eSiMNXoxl_xI9t-32">
          <mxGeometry relative="1" as="geometry" />
        </mxCell>
        <mxCell id="qduU26eSiMNXoxl_xI9t-207" style="edgeStyle=none;curved=1;rounded=0;orthogonalLoop=1;jettySize=auto;html=1;strokeWidth=3;fontSize=12;endArrow=none;endFill=0;startSize=8;endSize=8;fillColor=#ffe6cc;strokeColor=#d79b00;" edge="1" parent="1">
          <mxGeometry x="-0.1591" y="-4" relative="1" as="geometry">
            <mxPoint x="290" y="600" as="sourcePoint" />
            <mxPoint x="240" y="710" as="targetPoint" />
            <Array as="points">
              <mxPoint x="240" y="590" />
            </Array>
            <mxPoint as="offset" />
          </mxGeometry>
        </mxCell>
        <mxCell id="qduU26eSiMNXoxl_xI9t-208" style="edgeStyle=none;curved=1;rounded=0;orthogonalLoop=1;jettySize=auto;html=1;exitX=0;exitY=0.5;exitDx=0;exitDy=0;strokeWidth=3;fontSize=12;endArrow=none;endFill=0;startSize=8;endSize=8;fillColor=#dae8fc;strokeColor=#6c8ebf;" edge="1" parent="1" source="qduU26eSiMNXoxl_xI9t-142">
          <mxGeometry x="-0.3439" y="-13" relative="1" as="geometry">
            <mxPoint x="270" y="710" as="targetPoint" />
            <Array as="points">
              <mxPoint x="270" y="650" />
            </Array>
            <mxPoint as="offset" />
          </mxGeometry>
        </mxCell>
        <mxCell id="qduU26eSiMNXoxl_xI9t-209" style="edgeStyle=none;curved=1;rounded=0;orthogonalLoop=1;jettySize=auto;html=1;strokeWidth=3;fontSize=12;endArrow=none;endFill=0;startSize=8;endSize=8;fillColor=#d5e8d4;strokeColor=#82b366;" edge="1" parent="1">
          <mxGeometry relative="1" as="geometry">
            <mxPoint x="300" y="670" as="targetPoint" />
            <mxPoint x="300" y="710" as="sourcePoint" />
          </mxGeometry>
        </mxCell>
        <mxCell id="qduU26eSiMNXoxl_xI9t-210" style="edgeStyle=none;curved=1;rounded=0;orthogonalLoop=1;jettySize=auto;html=1;entryX=0.5;entryY=1;entryDx=0;entryDy=0;strokeWidth=3;fontSize=12;endArrow=none;endFill=0;startSize=8;endSize=8;fillColor=#f8cecc;strokeColor=#b85450;" edge="1" parent="1" target="qduU26eSiMNXoxl_xI9t-133">
          <mxGeometry relative="1" as="geometry">
            <mxPoint x="210" y="710" as="sourcePoint" />
          </mxGeometry>
        </mxCell>
        <mxCell id="qduU26eSiMNXoxl_xI9t-223" style="edgeStyle=none;curved=1;rounded=0;orthogonalLoop=1;jettySize=auto;html=1;exitX=0;exitY=1;exitDx=0;exitDy=0;entryX=0.5;entryY=0;entryDx=0;entryDy=0;strokeWidth=3;fontSize=12;endArrow=none;endFill=0;startSize=8;endSize=8;" edge="1" parent="1" source="qduU26eSiMNXoxl_xI9t-127" target="qduU26eSiMNXoxl_xI9t-158">
          <mxGeometry relative="1" as="geometry">
            <Array as="points">
              <mxPoint x="190" y="620" />
            </Array>
          </mxGeometry>
        </mxCell>
        <mxCell id="qduU26eSiMNXoxl_xI9t-228" style="edgeStyle=none;curved=1;rounded=0;orthogonalLoop=1;jettySize=auto;html=1;exitX=0;exitY=0.5;exitDx=0;exitDy=0;strokeWidth=3;fontSize=12;endArrow=none;endFill=0;startSize=8;endSize=8;fillColor=#d5e8d4;strokeColor=#82b366;" edge="1" parent="1" source="qduU26eSiMNXoxl_xI9t-147">
          <mxGeometry relative="1" as="geometry">
            <mxPoint x="190" y="660.3333333333333" as="targetPoint" />
          </mxGeometry>
        </mxCell>
        <mxCell id="qduU26eSiMNXoxl_xI9t-229" style="edgeStyle=none;curved=1;rounded=0;orthogonalLoop=1;jettySize=auto;html=1;exitX=0;exitY=0.5;exitDx=0;exitDy=0;strokeWidth=3;fontSize=12;endArrow=none;endFill=0;startSize=8;endSize=8;fillColor=#dae8fc;strokeColor=#6c8ebf;" edge="1" parent="1" source="qduU26eSiMNXoxl_xI9t-139">
          <mxGeometry relative="1" as="geometry">
            <mxPoint x="190" y="630.3333333333333" as="targetPoint" />
          </mxGeometry>
        </mxCell>
      </root>
    </mxGraphModel>
  </diagram>
</mxfile>
